<?xml version="1.0" encoding="UTF-8"?>
<!DOCTYPE svg PUBLIC "-//W3C//DTD SVG 1.1//EN" "http://www.w3.org/Graphics/SVG/1.1/DTD/svg11.dtd">
<svg xmlns="http://www.w3.org/2000/svg" version="1.1" width="278px" height="200px" style="shape-rendering:geometricPrecision; text-rendering:geometricPrecision; image-rendering:optimizeQuality; fill-rule:evenodd; clip-rule:evenodd" xmlns:xlink="http://www.w3.org/1999/xlink">
<g><path style="opacity:1" fill="#231f20" d="M -0.5,-0.5 C 92.1667,-0.5 184.833,-0.5 277.5,-0.5C 277.5,66.1667 277.5,132.833 277.5,199.5C 184.833,199.5 92.1667,199.5 -0.5,199.5C -0.5,132.833 -0.5,66.1667 -0.5,-0.5 Z"/></g>
<g><path style="opacity:1" fill="#666666" d="M 167.5,65.5 C 156.321,65.1721 145.321,65.5054 134.5,66.5C 133.957,66.44 133.624,66.1067 133.5,65.5C 144.993,64.176 156.326,64.176 167.5,65.5 Z"/></g>
<g><path style="opacity:1" fill="#f8f7f7" d="M 167.5,65.5 C 182.52,68.1839 189.354,77.1839 188,92.5C 186.604,96.2295 184.77,99.7295 182.5,103C 179.824,105.339 176.824,107.172 173.5,108.5C 178.593,116.258 183.26,124.258 187.5,132.5C 183.366,133.485 179.032,133.818 174.5,133.5C 167.482,122.645 160.815,111.478 154.5,100C 158.833,99.6667 163.167,99.3333 167.5,99C 175.346,95.7757 177.513,90.2757 174,82.5C 172.269,80.3834 170.102,78.8834 167.5,78C 158.833,77.6667 150.167,77.3333 141.5,77C 138.784,73.7294 136.451,70.2294 134.5,66.5C 145.321,65.5054 156.321,65.1721 167.5,65.5 Z"/></g>
<g><path style="opacity:1" fill="#f7f6f6" d="M 122.5,65.5 C 124.776,67.3306 126.609,69.6639 128,72.5C 133.883,84.9276 139.716,97.2609 145.5,109.5C 141.154,109.666 136.821,109.499 132.5,109C 129.627,103.42 126.627,97.92 123.5,92.5C 116.317,106.033 109.317,119.699 102.5,133.5C 97.8333,134.833 93.1667,134.833 88.5,133.5C 100.356,111.121 111.689,88.4546 122.5,65.5 Z"/></g>
<g><path style="opacity:1" fill="#f4f3f3" d="M 157.5,132.5 C 153.03,133.486 148.363,133.819 143.5,133.5C 135.001,125.836 126.334,118.336 117.5,111C 128.785,114.427 140.119,118.094 151.5,122C 153.903,125.311 155.903,128.811 157.5,132.5 Z"/></g>
<g><path style="opacity:1" fill="#8d8b8c" d="M 157.5,132.5 C 158.043,132.56 158.376,132.893 158.5,133.5C 153.348,134.814 148.348,134.814 143.5,133.5C 148.363,133.819 153.03,133.486 157.5,132.5 Z"/></g>
<g><path style="opacity:1" fill="#b2b0b1" d="M 187.5,132.5 C 188.043,132.56 188.376,132.893 188.5,133.5C 183.682,134.812 179.015,134.812 174.5,133.5C 179.032,133.818 183.366,133.485 187.5,132.5 Z"/></g>
</svg>
